HIERARCHY
ROOT Hips
{
	OFFSET 0.00000 0.00000 0.00000
	CHANNELS 6 Xposition Yposition Zposition Zrotation Yrotation Xrotation 
	JOINT LHipJoint
	{
		OFFSET 0 0 0
		CHANNELS 3 Zrotation Yrotation Xrotation
		JOINT LeftHip
		{
			OFFSET 1.37590 -1.78394 0.89329
			CHANNELS 3 Zrotation Yrotation Xrotation
			JOINT LeftKnee
			{
				OFFSET 2.47928 -6.81178 0.00000
				CHANNELS 3 Zrotation Yrotation Xrotation
				JOINT LeftAnkle
				{
					OFFSET 2.63345 -7.23535 0.00000
					CHANNELS 3 Zrotation Yrotation Xrotation
					JOINT LeftToe
					{
						OFFSET 0.23938 -0.65768 2.27012
						CHANNELS 3 Zrotation Yrotation Xrotation
						End Site
						{
							OFFSET 0.00000 -0.00000 1.18363
						}
					}
				}
			}
		}
	}
	JOINT RHipJoint
	{
		OFFSET 0 0 0
		CHANNELS 3 Zrotation Yrotation Xrotation
		JOINT RightHip
		{
			OFFSET -1.33617 -1.78394 0.89329
			CHANNELS 3 Zrotation Yrotation Xrotation
			JOINT RightKnee
			{
				OFFSET -2.56922 -7.05888 0.00000
				CHANNELS 3 Zrotation Yrotation Xrotation
				JOINT RightAnkle
				{
					OFFSET -2.56568 -7.04915 0.00000
					CHANNELS 3 Zrotation Yrotation Xrotation
					JOINT RightToe
					{
						OFFSET -0.27533 -0.75646 2.18105
						CHANNELS 3 Zrotation Yrotation Xrotation
						End Site
						{
							OFFSET -0.00000 -0.00000 1.15233
						}
					}
				}
			}
		}
	}
	JOINT lowerback
	{
		OFFSET 0 0 0
		CHANNELS 3 Zrotation Yrotation Xrotation
		JOINT Chest
		{
			OFFSET 0.06190 2.15152 -0.00935
			CHANNELS 3 Zrotation Yrotation Xrotation
			JOINT Chest2
			{
				OFFSET 0.06334 2.15332 0.00872
				CHANNELS 3 Zrotation Yrotation Xrotation
				JOINT lowerneck
				{
					OFFSET 0 0 0
					CHANNELS 3 Zrotation Yrotation Xrotation
					JOINT Neck
					{
						OFFSET -0.04202 1.66908 0.23524
						CHANNELS 3 Zrotation Yrotation Xrotation
						JOINT Head
						{
							OFFSET 0.07510 1.69357 -0.24440
							CHANNELS 3 Zrotation Yrotation Xrotation
							End Site
							{
								OFFSET 0.02556 1.71719 -0.11000
							}
						}
					}
				}
				JOINT LeftCollar
				{
					OFFSET 0 0 0
					CHANNELS 3 Zrotation Yrotation Xrotation
					JOINT LeftShoulder
					{
						OFFSET 3.67168 1.26306 -0.41342
CHANNELS 3 Zrotation Xrotation Yrotation
						JOINT LeftElbow
						{
OFFSET 0 -4.685100 -0.000000
CHANNELS 3 Zrotation Xrotation Yrotation
							JOINT LeftWrist
							{
OFFSET 0 -3.396260 -0.000000
CHANNELS 3 Zrotation Xrotation Yrotation
								JOINT lhand
								{
									OFFSET 0 0 0
CHANNELS 3 Zrotation Xrotation Yrotation
									JOINT LFingers
									{
OFFSET 0 -0.486080 -0.000000
CHANNELS 3 Zrotation Xrotation Yrotation
										End Site
										{
OFFSET 0 -0.391890 -0.000000
										}
									}
								}
								JOINT LThumb
								{
OFFSET 0 0.000000 0.000000
CHANNELS 3 Zrotation Xrotation Yrotation
									End Site
									{
OFFSET 0 -0.397870 0.397870
									}
								}
							}
						}
					}
				}
				JOINT RightCollar
				{
					OFFSET 0 0 0
					CHANNELS 3 Zrotation Yrotation Xrotation
					JOINT RightShoulder
					{
						OFFSET -3.04136 1.42992 -0.76390
CHANNELS 3 Zrotation Xrotation Yrotation
						JOINT RightElbow
						{
OFFSET 0 -5.555760 -0.000000
CHANNELS 3 Zrotation Xrotation Yrotation
							JOINT RightWrist
							{
OFFSET 0 -3.327740 -0.000000
CHANNELS 3 Zrotation Xrotation Yrotation
								JOINT rhand
								{
									OFFSET 0 0 0
CHANNELS 3 Zrotation Xrotation Yrotation
									JOINT RFingers
									{
OFFSET 0 -0.507630 -0.000000
CHANNELS 3 Zrotation Xrotation Yrotation
										End Site
										{
OFFSET 0 -0.409260 -0.000000
										}
									}
								}
								JOINT RThumb
								{
OFFSET 0 0.000000 0.000000
CHANNELS 3 Zrotation Xrotation Yrotation
									End Site
									{
OFFSET 0 -0.415510 0.415510
									}
								}
							}
						}
					}
				}
			}
		}
	}
}
MOTION
Frames: 12
Frame Time: .0083333
-8.4763 17.9605 4.8874 -19.2423 -71.7326 23.5159 0.0000 0.0000 0.0000 -13.2309 -16.1393 -15.9520 1.2458 7.0768 19.9432 -0.0178 -3.8274 -1.8067 0.0215 -0.9459 -2.6001 0.0000 0.0000 0.0000 24.5689 -5.9541 -20.0525 -8.5834 -16.5321 54.6380 0.5791 -13.3714 -5.9960 -0.0079 -0.5755 1.5813 3.2069 7.4117 -0.1999 -0.2177 9.8910 -1.0677 -1.9522 4.9254 -0.4126 -10.3601 -8.6914 -15.8177 14.8126 -11.6750 9.2895 5.1439 -4.9639 6.9630 0.0000 -0.0000 0.0000 -1.2352 8.678 13.4715 16.3640 -26.0117 3.8042 13.576 36.6146 -24.2859 0.0 0.0 0.0 -7.1250 0.0 0.0 -16.6153 54.1043 3.7983 0.0000 -0.0000 0.0000 -24.097 -31.4433 31.3556 -46.6911 -51.5705 -23.5562 -24.2318 22.9701 43.0763 0.0 0.0 0.0 7.1250 0.0 -0.0 24.0133 74.5739 -16.9904
-8.6092 17.9692 4.9092 -18.7615 -71.8741 22.9606 0.0000 0.0000 0.0000 -13.5915 -15.9450 -15.3021 1.2440 7.0720 19.9290 -0.0108 -3.8729 -2.2160 0.0211 -0.9374 -2.5766 0.0000 0.0000 0.0000 24.0094 -5.8845 -20.7136 -8.7368 -16.6353 55.1754 0.6227 -13.8409 -6.0117 -0.0120 -0.7079 1.9455 2.9940 7.2259 -0.1858 -0.1994 9.6432 -1.0581 -1.8287 4.8021 -0.4620 -10.2809 -8.5458 -15.8518 14.6890 -11.4835 9.4114 5.1170 -4.8736 6.9688 0.0000 0.0000 0.0000 -1.4817 8.4172 12.9364 15.9883 -25.5048 3.6409 13.4158 36.9719 -23.8962 0.0 0.0 0.0 -7.1250 0.0 0.0 -16.5754 53.6984 3.6223 0.0000 0.0000 0.0000 -22.5785 -29.5377 32.5629 -46.6512 -51.5522 -23.525 -24.8215 24.0667 42.7135 0.0 0.0 0.0 7.1250 0.0 -0.0 22.4393 74.4823 -15.8064
-8.7407 17.9776 4.9298 -18.3018 -72.0102 22.4340 0.0000 0.0000 0.0000 -13.9308 -15.7524 -14.6582 1.2402 7.0615 19.8977 -0.0024 -3.9135 -2.6357 0.0213 -0.9425 -2.5905 0.0000 0.0000 0.0000 23.4634 -5.8014 -21.3659 -8.8580 -16.7154 55.5976 0.6664 -14.2992 -6.0927 -0.0169 -0.8404 2.3097 2.7874 7.0373 -0.1712 -0.1736 9.3915 -1.0499 -1.7001 4.6770 -0.5118 -10.1972 -8.3958 -15.8872 14.5572 -11.2852 9.5319 5.0875 -4.7805 6.9730 0.0000 -0.0000 0.0000 -1.7152 8.1543 12.2871 15.6531 -25.048 3.4978 13.2663 37.2547 -23.4972 0.0 0.0 0.0 -7.1250 0.0 0.0 -16.5240 53.2858 3.4417 0.0000 -0.0000 0.0000 -21.1254 -27.6423 33.6492 -46.3410 -51.4088 -23.2823 -25.3895 25.0867 42.3471 0.0 0.0 0.0 7.1250 0.0 -0.0 20.9030 74.3732 -14.653
-8.8708 17.9858 4.9493 -17.8644 -72.1416 21.9382 0.0000 0.0000 0.0000 -14.2489 -15.5622 -14.0211 1.2343 7.0453 19.8498 0.0072 -3.9474 -3.0587 0.0220 -0.9582 -2.6337 0.0000 0.0000 0.0000 22.9321 -5.7045 -22.0056 -8.9449 -16.7721 55.8992 0.7101 -14.7442 -6.2348 -0.0228 -0.9739 2.6769 2.5894 6.8459 -0.1526 -0.1425 9.1364 -1.0457 -1.5706 4.5500 -0.5657 -10.1073 -8.2412 -15.9236 14.4184 -11.0806 9.6523 5.0553 -4.6847 6.9762 -0.0000 -0.0000 0.0000 -1.9311 7.894 11.5245 15.3607 -24.6462 3.3749 13.1307 37.4585 -23.0921 0.0 0.0 0.0 -7.1250 0.0 0.0 -16.4596 52.8699 3.2579 -0.0000 -0.0000 0.0000 -19.7321 -25.7647 34.6121 -45.7628 -51.1368 -22.8312 -25.9383 26.022 41.9804 0.0 0.0 0.0 7.1250 0.0 -0.0 19.4107 74.2502 -13.5368
-8.9997 17.9936 4.9676 -17.4499 -72.2711 21.4735 0.0000 0.0000 0.0000 -14.5465 -15.3740 -13.3907 1.2262 7.0231 19.7840 0.0179 -3.9749 -3.4820 0.0233 -0.9849 -2.7074 0.0000 0.0000 0.0000 22.4146 -5.5922 -22.6285 -8.9957 -16.8049 56.0751 0.7531 -15.1708 -6.4339 -0.0294 -1.1063 3.0413 2.3978 6.6531 -0.1327 -0.1052 8.8794 -1.0438 -1.4376 4.4221 -0.6208 -10.0130 -8.0830 -15.9610 14.2732 -10.8705 9.7710 5.0209 -4.5866 6.9781 0.0000 0.0000 0.0000 -2.1303 7.6372 10.6455 15.1141 -24.3048 3.2727 13.0106 37.5765 -22.6922 0.0 0.0 0.0 -7.1250 0.0 0.0 -16.3864 52.4621 3.0766 0.0000 0.0000 0.0000 -18.4023 -23.9154 35.4472 -44.9259 -50.7321 -22.1814 -26.4652 26.8682 41.6179 0.0 0.0 0.0 7.1250 0.0 -0.0 17.9762 74.1173 -12.4693
-9.1273 18.0009 4.9847 -17.0582 -72.3999 21.0408 0.0000 0.0000 0.0000 -14.8238 -15.1866 -12.7690 1.2160 6.9949 19.7004 0.0298 -3.9962 -3.9042 0.0252 -1.0252 -2.8181 0.0000 0.0000 0.0000 21.9116 -5.4646 -23.2329 -9.0096 -16.8139 56.1232 0.7950 -15.5764 -6.6869 -0.0370 -1.2412 3.4126 2.2118 6.4590 -0.1115 -0.0621 8.6208 -1.0447 -1.3012 4.2934 -0.6778 -9.9136 -7.9206 -15.9998 14.1219 -10.6543 9.8884 4.9842 -4.4858 6.9790 -0.0000 -0.0000 0.0000 -2.3107 7.3868 9.6547 14.9154 -24.0281 3.1914 12.9064 37.6044 -22.2979 0.0 0.0 0.0 -7.1250 0.0 0.0 -16.3040 52.0624 2.8983 -0.0000 -0.0000 0.0000 -17.1336 -22.1002 36.1516 -43.8520 -50.1935 -21.3531 -26.974 27.6208 41.2631 0.0 0.0 0.0 7.1250 0.0 -0.0 16.6007 73.9788 -11.4528
-9.2537 18.0079 5.0007 -16.6844 -72.5295 20.6355 0.0000 0.0000 0.0000 -15.0835 -14.9992 -12.1561 1.2037 6.9606 19.5986 0.0427 -4.0070 -4.3225 0.0279 -1.0783 -2.9644 0.0000 0.0000 0.0000 21.4214 -5.3221 -23.8156 -8.9857 -16.7985 56.0407 0.8348 -15.9556 -6.9891 -0.0456 -1.3775 3.7882 2.0294 6.2647 -0.0900 -0.0136 8.3617 -1.0472 -1.1603 4.1647 -0.7349 -9.8100 -7.7552 -16.0412 13.9644 -10.4334 10.0033 4.9451 -4.3831 6.9789 0.0000 0.0000 0.0000 -2.4726 7.141 8.5618 14.7650 -23.8178 3.1304 12.8193 37.5435 -21.8998 0.0 0.0 0.0 -7.1250 0.0 0.0 -16.2067 51.6619 2.7185 0.0000 0.0000 0.0000 -15.9263 -20.3268 36.7194 -42.5666 -49.5191 -20.3705 -27.4556 28.2703 40.9251 0.0 0.0 0.0 7.1250 0.0 -0.0 15.3124 73.841 -10.5081
-9.3789 18.0143 5.0155 -16.3320 -72.6613 20.2609 0.0000 0.0000 0.0000 -15.3244 -14.8091 -11.5541 1.1893 6.9205 19.4802 0.0565 -4.0051 -4.7338 0.0311 -1.1391 -3.1317 0.0000 0.0000 0.0000 20.9457 -5.1637 -24.3734 -8.9237 -16.7584 55.8258 0.8720 -16.3052 -7.3341 -0.0552 -1.5163 4.1706 1.8510 6.0704 -0.0686 0.0405 8.1028 -1.0516 -1.0151 4.0360 -0.7922 -9.7034 -7.5867 -16.0851 13.8025 -10.2075 10.1162 4.9044 -4.2783 6.9781 0.0000 0.0000 0.0000 -2.6143 6.9022 7.3752 14.6648 -23.6771 3.0901 12.7508 37.3965 -21.5143 0.0 0.0 0.0 -7.1250 0.0 0.0 -16.1011 51.2767 2.5453 0.0000 0.0000 0.0000 -14.7786 -18.6013 37.1484 -41.0992 -48.7078 -19.2611 -27.903 28.8071 40.5967 0.0 0.0 0.0 7.1250 0.0 -0.0 14.1083 73.6952 -9.629
-9.5031 18.0203 5.0291 -15.9930 -72.7967 19.9097 0.0000 0.0000 0.0000 -15.5502 -14.6159 -10.9639 1.1734 6.8756 19.3473 0.0710 -3.9967 -5.1363 0.0350 -1.2075 -3.3199 0.0000 0.0000 0.0000 20.4818 -4.9901 -24.9044 -8.8237 -16.6929 55.4785 0.9056 -16.6212 -7.7142 -0.0658 -1.6547 4.5523 1.6742 5.8769 -0.0476 0.0991 7.8448 -1.0576 -0.8653 3.9080 -0.8493 -9.5928 -7.4154 -16.1304 13.6357 -9.9774 10.2257 4.8619 -4.1717 6.9763 0.0000 0.0000 0.0000 -2.7354 6.6703 6.1108 14.6151 -23.6072 3.0701 12.7013 37.1708 -21.142 0.0 0.0 0.0 -7.1250 0.0 0.0 -15.9864 50.9071 2.3788 0.0000 0.0000 0.0000 -13.6886 -16.9281 37.4331 -39.4838 -47.7611 -18.0561 -28.2982 29.2209 40.2914 0.0 0.0 0.0 7.1250 0.0 -0.0 13.0353 73.5486 -8.8489
-9.6262 18.0257 5.0415 -15.6687 -72.9364 19.5829 0.0000 0.0000 0.0000 -15.7605 -14.4189 -10.3863 1.1560 6.8262 19.2016 0.0861 -3.9865 -5.5289 0.0393 -1.2800 -3.5196 0.0000 0.0000 0.0000 20.0305 -4.8010 -25.4065 -8.6867 -16.6018 55.0001 0.9349 -16.9009 -8.1223 -0.0771 -1.7912 4.9290 1.4993 5.6844 -0.0269 0.1617 7.5880 -1.0653 -0.7115 3.7807 -0.9062 -9.4785 -7.2416 -16.1775 13.4656 -9.7434 10.3320 4.8178 -4.0635 6.9734 0.0000 0.0000 0.0000 -2.8337 6.4465 4.7825 14.6162 -23.6088 3.0706 12.6683 36.8706 -20.7879 0.0 0.0 0.0 -7.1250 0.0 0.0 -15.8670 50.5577 2.2216 0.0000 0.0000 0.0000 -12.6535 -15.3107 37.5713 -37.7558 -46.6826 -16.7877 -28.6269 29.5056 40.0094 0.0 0.0 0.0 7.1250 0.0 -0.0 12.1126 73.3972 -8.1781
-9.7483 18.0305 5.0528 -15.3597 -73.0809 19.2814 0.0000 0.0000 0.0000 -15.9549 -14.2185 -9.8228 1.1376 6.7734 19.0458 0.1016 -3.9704 -5.9112 0.0441 -1.3547 -3.7253 0.0000 0.0000 0.0000 19.5924 -4.5959 -25.8785 -8.5139 -16.4845 54.3932 0.9596 -17.1442 -8.5506 -0.0894 -1.9289 5.3092 1.3267 5.4932 -0.0066 0.2280 7.3331 -1.0743 -0.5544 3.6544 -0.9624 -9.3615 -7.0655 -16.2282 13.2931 -9.5060 10.4348 4.7727 -3.9537 6.9702 0.0000 0.0000 0.0000 -2.9089 6.229 3.4104 14.6674 -23.6807 3.0911 12.6536 36.5083 -20.4537 0.0 0.0 0.0 -7.1250 0.0 0.0 -15.7413 50.2302 2.0743 0.0000 0.0000 0.0000 -11.6704 -13.7532 37.5554 -35.9500 -45.4787 -15.4868 -28.8775 29.6663 39.76 0.0 0.0 0.0 7.1250 0.0 -0.0 11.3687 73.247 -7.6354
-9.8695 18.0347 5.0629 -15.0614 -73.2309 19.0007 0.0000 0.0000 0.0000 -16.1358 -14.0155 -9.2742 1.1184 6.7180 18.8825 0.1174 -3.9507 -6.2833 0.0493 -1.4330 -3.9410 0.0000 0.0000 0.0000 19.1659 -4.3750 -26.3189 -8.3068 -16.3404 53.6605 0.9792 -17.3498 -8.9906 -0.1022 -2.0618 5.6765 1.1562 5.3036 0.0138 0.2970 7.0801 -1.0851 -0.3949 3.5293 -1.0185 -9.2408 -6.8872 -16.2811 13.1181 -9.2654 10.5337 4.7263 -3.8425 6.9662 0.0000 -0.0000 0.0000 -2.9596 6.0184 2.0127 14.7679 -23.8218 3.1316 12.6531 36.0969 -20.1509 0.0 0.0 0.0 -7.1250 0.0 0.0 -15.6177 49.9353 1.942 0.0000 -0.0000 0.0000 -10.7382 -12.2565 37.3844 -34.1005 -44.1591 -14.1831 -29.037 29.7056 39.5447 0.0 0.0 0.0 7.1250 0.0 -0.0 10.8213 73.0959 -7.23
